<?xml version="1.0" encoding="utf-8"?>
<!-- Generator: Adobe Illustrator 19.0.0, SVG Export Plug-In . SVG Version: 6.00 Build 0)  -->
<svg version="1.1" id="图层_1" xmlns="http://www.w3.org/2000/svg" xmlns:xlink="http://www.w3.org/1999/xlink" x="0px" y="0px"
	 viewBox="0 0 40 40" style="enable-background:new 0 0 40 40;" xml:space="preserve">
<style type="text/css">
	.st0{fill:#FFFFFF;}
</style>
<g id="XMLID_5_">
	<g>
		<defs>
			<path id="XMLID_4_" d="M18,6.6h14.8c0.6,0,1.1,0.3,1.4,0.8l5.5,8.7c0.4,0.6,0.3,1.5-0.2,2L26.7,32.9c-0.6,0.7-1.7,0.8-2.4,0.2
				c-0.1-0.1-0.1-0.1-0.2-0.2L11.2,18.1c-0.5-0.6-0.6-1.4-0.2-2l5.5-8.7C16.8,6.8,17.4,6.6,18,6.6z"/>
		</defs>
		<use xlink:href="#XMLID_4_"  style="overflow:visible;fill-rule:evenodd;clip-rule:evenodd;fill:#A4BFFF;"/>
		<clipPath id="XMLID_7_">
			<use xlink:href="#XMLID_4_"  style="overflow:visible;"/>
		</clipPath>
	</g>
	<g>
		<defs>
			<path id="XMLID_3_" d="M7.2,6.6H22c0.6,0,1.1,0.3,1.4,0.8L29,16c0.4,0.6,0.3,1.5-0.2,2L15.9,32.9c-0.6,0.7-1.7,0.8-2.4,0.2
				c-0.1-0.1-0.1-0.1-0.2-0.2L0.4,18.1c-0.5-0.6-0.6-1.4-0.2-2l5.5-8.7C6.1,6.8,6.6,6.6,7.2,6.6z"/>
		</defs>
		<use xlink:href="#XMLID_3_"  style="overflow:visible;fill-rule:evenodd;clip-rule:evenodd;fill:#2562F5;"/>
		<clipPath id="XMLID_8_">
			<use xlink:href="#XMLID_3_"  style="overflow:visible;"/>
		</clipPath>
	</g>
	<path id="XMLID_2_" class="st0" d="M28.5,17.9H14.9c-0.5,0-0.9-0.4-0.9-0.9s0.4-0.9,0.9-0.9h13.6c0.5,0,0.9,0.4,0.9,0.9
		S29,17.9,28.5,17.9z"/>
	<path id="XMLID_1_" class="st0" d="M28.5,17.9H14.9c-0.5,0-0.9-0.4-0.9-0.9s0.4-0.9,0.9-0.9h13.6c0.5,0,0.9,0.4,0.9,0.9
		S29,17.9,28.5,17.9z"/>
</g>
</svg>
